<svg version="1.1" viewBox="0 0 349.23 68.933" xmlns="http://www.w3.org/2000/svg">
 <g transform="matrix(1.3333 0 0 -1.3333 0 68.933)">
  <path transform="matrix(.75 0 0 -.75 0 51.7)" d="m167.93 17.969v2.3281c-4.7921 0.9809-9.6582 5.4698-9.6582 13.777 0 8.4779 3.8489 12.804 9.6582 13.873v2.4902h0.4043v0.003906h6.0352v-0.003906h0.41016v-2.4922c5.7235-1.0707 9.6523-5.358 9.6523-13.961 0-8.3786-4.0942-12.702-9.6523-13.695v-2.3203h-6.8496zm89.518 1.0605c-8.2867 0-11.082 7.7351-11.082 15.473 0 7.7337 2.7954 15.477 11.082 15.477 8.288 0 11.092-7.7428 11.092-15.477 0-7.7376-2.8038-15.473-11.092-15.473zm32.756 0.10547v30.135h0.34375v0.009766h6.543l4.0098-10.152c0.71111-1.797 1.6888-4.4337 2.3555-6.5781v16.721h0.17774v0.009766h6.2207v-0.009766h0.44922v-30.135h-6.8477v0.003906h-0.0039l-4.1484 10.598c-0.53032 1.3805-1.4824 3.7916-2.252 5.9062v-16.508h-6.8477zm-84.83 0.02539v30.137h6.8516l-0.01367-12.115h1.6211l3.9316 12.115h8.0488l-6.0918-15.832 5.3398-14.305h-7.4414l-3.9238 10.848h-1.4844l0.01367-10.848h-6.8516zm21.453 0.015625-0.01172 7.5215h5.877v22.623h0.01562v0.007813l3.5547-0.003906 3.5527 0.003906v-0.007813h0.01562v-22.623h5.877l-0.01171-7.5215-9.4336 0.007813-9.4355-0.007813zm-37.807 0.00586-5.998 30.135h7.1035l0.85938-5.2051h4.8867l0.85547 5.2051h7.0976l-5.9922-30.135h-8.8125zm124.41 0v30.135h6.8457v-12.053h4.8887v12.053h6.8398v-30.135h-6.8398v10.85h-4.8887v-10.85h-6.8457zm35.791 0.052734-14.336 0.007813v30.135l7.1211 0.007813v-22.629h7.2266l-0.01172-7.5215zm-79.002 0.089844v30.135l7.0039 0.00586v-9.9336h2.3418c6.9333 0 9.0625-6.2268 9.0625-10.176 0-3.9021-2.4452-10.031-9.0625-10.025l-9.3457-0.005859zm-167.56 0.046875-14.336 0.007812v30.135l7.1211 0.005859v-22.629h7.2246l-0.00977-7.5195zm2.6777 0.052734v30.133l6.9941 0.007812v-22.881h5.0938v22.873h6.9922v-30.133h-19.08zm21.953 0.001953v30.135h8.3574c1.8067 0 9.3654-0.74608 9.3867-9.8633 0.00533-7.71-5.8636-9.0469-9.6543-9.0469h-1.2402v-3.9863h9.2559v-7.2383h-16.105zm47.488 5.9844c1.3295 0.68503 2.7637 2.8834 2.7637 8.6191 0 5.7643-1.3782 8.062-2.7637 8.7578v-17.377zm-6.8496 0.048828v17.336c-1.3879-0.73272-2.7715-3.3848-2.7715-8.6309 0-5.5156 1.4127-7.8644 2.7715-8.7051zm109.3 0.50391h1.6602c1.5907 0 2.5742 0.94265 2.5742 3.4453 0 3.2656-1.6742 3.4883-2.5742 3.4883h-1.6602v-6.9336zm-19.779 0.35352c2.468 0 3.7383 2.873 3.7383 8.1855 0 5.3099-1.2703 8.1875-3.7383 8.1875-2.456 0-3.7363-2.8776-3.7363-8.1875 0-5.3125 1.2803-8.1855 3.7363-8.1855zm-64.021 1.9648 1.3242 9.1992h-2.6465l1.3223-9.1992zm-46.096 1.998v6h9v-6h-9zm-13.189 6.3984h1.0234c0.81733 0 3.0273 0.048845 3.0273 3.1426 0 3.1881-2.21 3.7148-3.0273 3.7148h-1.0234v-6.8574z" fill="#fff"/>
  <path transform="matrix(.75 0 0 -.75 0 51.7)" d="m34.469 0c-19.006 0-34.469 15.46-34.469 34.473 0 19.003 15.463 34.461 34.469 34.461 19.005 0 34.473-15.458 34.473-34.461 0-19.013-15.468-34.473-34.473-34.473z" fill="#fff" fill-rule="evenodd"/>
  <path d="m8.0531 32.934c6.6094 4.3332 13.916 6.8578 26.302 4.7203 0.6844 0.3969 1.0601 0.7688 1.2355 1.5801-3.0953 1.1137-6.4449 1.5082-10.784 1.4371-3.8988-0.1086-10.912-1.5594-14.656-3.7707l1.1387 1.4238c2.6214 1.5317 9.4468 3.5766 14.562 3.6778 3.6101 0.0687 5.4847-0.136 9.7722-1.2903-0.3742 0.7375-1.2691 1.1016-2.5609 1.6867-4.1551 1.8629-11.914 2.034-18.266-0.7601 0.8054 0.5238 1.591 1.0164 2.6187 1.4871 2.0946 0.9543 5.5215 1.8859 9.8149 1.8101 3.4234-0.0527 7.4902-1.2484 9.9836-3.7187 0.4129-0.4895 0.6527-1.0098 0.7566-1.4254 1.9746-0.9949 3.1168-1.9316 3.7637-3.0387 0.2613-0.5574 0.375-1.1828 0.2527-1.8757 0.8231-0.493 1.2121-0.8973 1.6145-1.4469 0.2976-0.4461 0.5129-0.959 0.566-1.4281 0.0859-0.6207 0.1512-1.3118-0.4946-2.1258 0.6786-0.3278 1.2083-1.2625 1.2895-1.6754 0.3094-1.4879-0.6437-2.9363-1.9066-4.0602-1.45-1.2773-4.6512-2.7859-7.2567-3.4504-5.1804-1.3054-9.75-1.8582-13.391-2.5254 1.6211-0.3875 3.8438-0.9168 7.4703-0.9168 7.7211 0 14.552 3.6543 14.552 3.6543s-0.1571-0.4796-0.3059-0.9003c-4.9027-2.9637-12.718-4.2168-16.044-4.0633-3.3895 0.1551-6.2321 0.659-9.0211 1.5152-0.8563-0.2266-1.6973-0.4937-2.5075-0.8562 4.2422-1.9317 7.4446-2.3606 11.076-2.625 3.6953-0.2715 9.8152 0.6191 14.99 2.4882-0.236-0.2336-0.3575-0.6093-0.5997-0.832-2.6418-1.3789-8.2433-2.7812-11.053-2.8984-2.7926-0.1114-6.2129-0.0078-9.1758 0.5515-2.5605 0.4985-4.6386 1.3098-6.8183 2.2578-0.3996-0.2839-0.5961-0.6714-0.666-1.0859 8.5062-4.4449 16.482-4.5418 25.548-1.7273l-0.8328-0.7989c-9.9805-4.0398-17.789-2.4738-23.828 0.4383-0.1938 0.0879-0.4356 0.1848-0.611 0.2973 0.5543-0.9738 5.1727-4.3442 10.327-4.7629 3.5574-0.29687 7.8976 0.31445 10.471 1.343l-1.5016-0.7875c-1.2527-0.61133-4.5543-1.9957-9.1809-1.693-6.1531 0.41172-9.6179 3.1316-11.173 4.5613-0.7199 0.666-1.0605 1.4395-1.2789 2.3848-1.3902 0.7324-2.266 1.4805-2.9887 2.6152-0.43125 0.6641-0.34336 1.4055-0.23242 2.0321 0.03164 0.1972 0.08516 0.3808 0.15859 0.5585-0.66757 0.4868-1.3422 1.0024-1.6344 1.5266-0.60742 1.0984-0.23281 2.0399 0.1875 2.7703-0.36914 0.4094-0.70234 0.8352-0.85586 1.25-0.16406 0.5117-0.19297 0.9848-0.14688 1.5196 0.11407 0.9281 0.60821 1.7699 1.2418 2.4996 1.3473 1.5527 3.4597 2.7593 7.089 3.9609 3.5391 1.1684 4.97 1.3449 7.6438 1.9676 3.1219 0.7238 6.8574 0.9535 9.9863 2.05-8.7121 1.5289-17.765 0.1386-25.142-4.9414l0.5 1.4156m29.675 5.3738c-0.1082-0.4304-0.5683-0.9246-0.8875-1.2636 0.9508-0.2454 1.9032-0.595 2.8231-0.9422-0.109 0.8394-1.0953 1.6558-1.9356 2.2058m-26.84-17.409c-0.5582 0.3106-0.94455 0.5313-1.416 0.8582-0.25352-0.5476 0.22265-1.155 0.73043-1.4507 0.2172 0.2175 0.4645 0.3933 0.6856 0.5925m29.371 11.389c0.6265-0.3086 1.1906-0.5395 1.739-0.923 0.3942 0.75 0.1524 1.2418-0.6726 1.9328-0.3133-0.3746-0.6789-0.7059-1.0664-1.0098m-1.8645-1.1434c-1.2711-0.5867-3.0996-1.2003-5.7097-1.8597-2.1375-0.5356-7.3629-1.2801-12.975-2.5035-1.7848-0.3832-6.5875-1.5211-8.9547-3.5289 0.6601-0.5293 1.0664-0.6653 1.8035-1.0704 0.9824 0.6289 2.3023 1.2168 4.2805 1.7442 3.4488 0.9199 6.0117 1.3203 9.1101 1.8094 3.0813 0.4816 8.8547 1.6875 12.061 2.8363 1.0406 0.3793 2.0128 0.8609 2.7343 1.4219-0.2226 0.2488-2.2812 1.2418-2.35 1.1507m-24.242-13.4c0.4711 0.2825 1.0411 0.5606 1.6977 0.8223-0.8988 0.3691-1.8148 0.7774-2.7508 1.2039-0.423-0.2586-0.7988-0.5398-1.0988-0.8289 0.7129-0.4094 1.4234-0.8164 2.1519-1.1973m-2.9582-0.2902c-0.014-0.5777 0.3336-1.0879 1.1063-1.7226 0.0937 0.3148 0.2348 0.5453 0.4598 0.8402-0.5356 0.2715-1.061 0.5699-1.5661 0.8824m4.3473 10.643c6.3078 1.8469 12.928 2.4172 19.63 4.1976-2.6184 0.7059-4.0531 1.0028-6.8227 0.684-4.0226-0.4773-8.4406-1.3476-12.23-2.4707-1.4816-0.4473-9.2964-2.6558-7.041-5.7527 0-0.0422 1.3395 1.8383 6.4629 3.3418m23.65 6.4476c-1.0258 0.4598-2.3141 0.9196-3.6773 1.2848-0.6086-0.4887-1.3157-0.9188-2.3321-1.3125 1.7031-0.3023 2.9797-0.7727 4.409-1.1816 0.2578-0.1309 1.418 0.9539 1.6004 1.2093m3.1078-6.0675c-0.1918-0.1668-0.4019-0.3239-0.6359-0.4989-1.4278-1.1051-3.6848-1.9836-6.8125-2.816-6.4895-1.7461-11.201-2.0027-16.561-3.3125-1.0386-0.2527-2.1351-0.6074-3.1433-1.0168 1.0082-0.5066 2.0848-0.9742 3.1902-1.3953 2.1699 0.6223 3.2254 0.9063 6.3735 1.4395 1.2019 0.2058 4.9007 0.8515 7.5753 1.4179 4.8258 1.0293 11.896 3.2598 10.014 6.1821" fill="#1b3157" fill-rule="evenodd"/>
 </g>
</svg>
